<svg xmlns="http://www.w3.org/2000/svg" width="287.44" height="160" version="1.0">
  <path d="M168.57057 149.71924c-1.69606-.55448-3.15067-1.85515-3.99297-3.5704-.65883-1.34163-.74663-1.81799-.74663-4.05095 0-2.23521.08745-2.70862.74945-4.0567 1.6029-3.26418 4.92856-4.63539 8.59177-3.5425 2.82266.84211 4.56136 3.30972 4.82941 6.85402.37162 4.91363-2.28249 8.36704-6.63343 8.63109-.98409.05973-2.14006-.0496-2.7976-.26456zm5.17862-2.46093c1.28845-1.02708 1.95122-2.38192 2.13007-4.35419.27419-3.02375-.85119-5.46515-2.96077-6.42314-2.75374-1.25053-5.83489.15623-6.69644 3.05739-1.41919 4.77892.95468 8.87249 4.99662 8.61629 1.20983-.07669 1.73614-.26312 2.53052-.89635zm-74.51307-20.87627v-7.72475h2.13097v6.39289h7.9911v-6.39289h2.13097v15.44949h-2.13097v-7.19201h-7.9911v7.19201h-2.13097v-7.72474zm77.02487 6.96207c-.28135-.1813.48205-2.81232 3.64919-12.57687 2.20274-6.79118 3.97494-12.37765 3.93823-12.41435-.03671-.03672-.51894.07203-1.07162.24166-.6601.20259-1.06673.21731-1.18513.04292-.69647-1.02595-1.11488-1.51869-1.20415-1.41804-.05712.06442-1.8898 5.62971-4.0726 12.36734-2.7174 8.38778-4.09335 12.27201-4.36396 12.3193-1.26489.22107-1.18748-.10999 3.13272-13.39815l4.23105-13.01393-8.15041-11.19858-8.15042-11.19858h-38.57243l-4.3463 5.99333c-8.31214 11.46201-7.4827 10.42908-8.07669 10.05812-.29112-.18181-.52931-.42826-.52931-.54768 0-.11941 3.00309-4.35276 6.67352-9.40744 3.67043-5.05469 6.72893-9.33471 6.79664-9.51118.14877-.38768-19.45689-27.45043-19.96861-27.56375-.19771-.04378-3.10168.81589-6.45326 1.91038-3.35158 1.09447-10.5597 3.44311-16.01804 5.21917l-9.92425 3.22921.06854 17.0654.06855 17.06541 12.047 3.89933c11.09535 3.5913 12.03462 3.94142 11.89015 4.43208-.08628.293-.23329.61028-.3267.70505-.09341.09477-5.61174-1.5988-12.26295-3.76347L71.98663 97.945l-4.95459 2.86251c-2.72504 1.57437-9.54643 5.51543-15.15865 8.75792-5.61223 3.24248-10.3339 5.89541-10.49262 5.89541-.1587 0-7.28386-4.04217-15.83366-8.9826l-15.54512-8.98261v-35.977l15.20333-8.78914c8.36183-4.83402 15.46394-8.88915 15.78245-9.01139.47649-.18286 3.27483 1.3361 15.78942 8.57067L71.9875 61.0817l14.86175-4.84149 14.86176-4.84148 3.98111-12.25305c2.18961-6.73917 4.00536-12.27826 4.035-12.30907.2188-.22746 1.22746.33994 1.22025.68643-.00498.2393-1.67418 5.52836-3.70935 11.75346-2.03517 6.22511-3.65733 11.36136-3.6048 11.41389.05252.05253.54303-.05219 1.09-.2327 1.04308-.34425 1.20778-.2546 1.96954 1.07201.12548.21853.28502.3384.35453.26637.06951-.07203 1.82516-5.34377 3.90144-11.71497 2.07628-6.37121 3.79643-11.60141 3.82255-11.62268.14785-.12029 1.24618.45351 1.24618.65104 0 .12991-1.73807 5.57847-3.86237 12.10792-2.12431 6.52944-3.85596 12.03078-3.8481 12.22519.00784.19443 3.64035 5.32796 8.07222 11.40787l8.05795 11.05438 19.29734.05357 19.29736.05358 5.57443-7.71173c3.06593-4.24145 5.65013-7.71173 5.74265-7.71173.09253 0 .39215.16375.66585.36389.46504.34005.07144.95136-6.00902 9.33299-3.57866 4.93303-6.4944 9.11445-6.47941 9.29205.01497.17761 4.48504 6.45093 9.93349 13.94069l9.90625 13.61776 7.78015-2.53246c4.27909-1.39285 11.55596-3.75724 16.17082-5.2542l8.39067-2.72174v-34.229l-12.05953-3.90166c-12.00422-3.88376-12.0588-3.90471-11.89843-4.56704.0886-.36595.19396-.69821.2341-.73836.04014-.04015 5.56561 1.71856 12.27884 3.90822l12.20586 3.9812 14.76321-8.52171c8.11976-4.68695 15.03894-8.64735 15.37595-8.8009.54214-.24701 2.41173.7587 16.22151 8.72612l15.60876 9.00531v36.04089l-15.67572 9.04947-15.6757 9.04947-15.15668-8.77538c-8.33617-4.82645-15.29221-8.78005-15.45785-8.78576-.16565-.00572-6.9112 2.13336-14.99012 4.75351l-14.68893 4.7639-3.33902 10.26384c-1.83646 5.64511-3.73126 11.46249-4.21065 12.92754-.85228 2.60461-1.20837 3.06572-1.98235 2.56696zM56.45616 105.20558l14.79627-8.52386-.0592-17.17601-.05921-17.17601-14.87528-8.59638-14.8753-8.59637-14.88708 8.59149-14.88709 8.59148-.00453 17.18569-.00453 17.1857 14.85016 8.57804c8.16759 4.71793 14.93101 8.55152 15.02983 8.51907.09883-.03244 6.838-3.89473 14.97596-8.58284zm-15.06245 3.48139c-.1721-.37772-.26346-.73066-.20304-.78432.34545-.30678 24.73434-14.2842 24.92418-14.2842.12625 0 .37774.23731.55887.52734.403.6453 1.80384-.25334-12.05466 7.73311-6.15317 3.54597-11.57567 6.68293-12.05 6.97103l-.86244.52381-.31291-.68677zm-26.0643-29.18615V64.85044h1.59822V94.1512h-1.59822V79.50082zm38.15757-21.24889c-6.77581-3.91393-12.31964-7.24392-12.31964-7.39997 0-.15604.14984-.47346.33297-.70539.29269-.37069 1.81457.43664 12.586 6.67659 6.73917 3.90405 12.40042 7.19298 12.58055 7.30875.2581.16588.25863.32079.00252.73088-.17874.28621-.44598.51702-.59388.5129-.14789-.00413-5.81272-3.20982-12.58852-7.12376zm207.48485 47.03734 14.86795-8.57335-.00154-17.198-.00158-17.198-14.87399-8.59024-14.874-8.59023-14.82477 8.5665-14.82475 8.56649V96.76l14.71697 8.52811c8.09434 4.69044 14.7689 8.53854 14.83237 8.5513.06346.01277 6.80597-3.8348 14.98334-8.55014zm-14.9569 3.26211c-.20157-.37665-.18606-.5746.05723-.73076.18352-.11781 5.84756-3.40299 12.58673-7.30041 10.76289-6.22443 12.2925-7.03451 12.57753-6.66102.17846.23386.32777.54506.33177.69156.00779.28505-24.4819 14.5172-24.98017 14.5172-.16314 0-.42103-.23246-.57309-.51657zm-25.84659-29.05056V64.85044h1.33185V94.1512h-1.33185V79.50082zm38.48478-21.01308c-6.73932-3.89896-12.4021-7.18619-12.58398-7.30495-.37655-.24592.02143-1.2491.49554-1.2491.48185 0 25.00647 14.24044 25.00125 14.5172-.00276.14649-.15228.45975-.33226.69611-.28893.37945-1.76172-.40013-12.58055-6.65926zm-97.08629 22.7337c0-.07917-.25496-.48881-.56657-.91028l-.56655-.7663.56655-.79566c.31161-.43761.56657-.86705.56657-.95432 0-.08726-8.03108-.15865-17.84683-.15865-9.81576 0-17.84683.06478-17.84683.14397 0 .07918.26228.49871.58284.9323l.58283.78832-.58283.78832c-.32056.43359-.58284.85313-.58284.9323 0 .07919 8.03107.14398 17.84683.14398 9.81575 0 17.84683-.06479 17.84683-.14398zm-62.33071 27.31377v-7.72474l1.13208.00677 1.13206.00678 3.92824 5.91997 3.92824 5.91996.00073-5.92674.00072-5.92674h2.13097v15.44949l-1.13207-.00678-1.13208-.00678-3.92824-5.91996-3.92823-5.91997-.00073 5.92674-.00072 5.92675h-2.13097v-7.72475zm76.71472-57.0033v-7.72474l1.13207.00678 1.13207.00677 3.92824 5.91997 3.92823 5.91997.00074-5.92675.00072-5.92674h2.13097v15.44949l-1.13208-.00677-1.13208-.00678-3.92823-5.91997-3.92824-5.91997-.00072 5.92675-.00073 5.92674h-2.13096v-7.72475zm0-17.58045v-7.72474h2.13096v6.39288h7.99111v-6.39288h2.13097V41.6762h-2.13097v-7.192h-7.99111v7.192h-2.13096v-7.72474zm-62.25261-8.36089c-1.69606-.55447-3.15066-1.85515-3.99296-3.5704-.65883-1.34163-.74663-1.81799-.74663-4.05094 0-2.23522.08746-2.70862.74945-4.05671 1.6029-3.26418 4.92856-4.63539 8.59177-3.5425 2.82265.84211 4.56135 3.30972 4.82942 6.85401.37161 4.91365-2.2825 8.36705-6.63345 8.63111-.98409.05971-2.14005-.04961-2.7976-.26457zm5.17862-2.46093c1.28845-1.02708 1.95123-2.38191 2.13008-4.35419.27418-3.02375-.85119-5.46515-2.96077-6.42315-2.75374-1.25052-5.83489.15624-6.69645 3.0574-1.41919 4.77892.9547 8.87249 4.99662 8.61629 1.20984-.07669 1.73615-.26312 2.53052-.89635z"/>
</svg>